<svg width="24" height="18" viewBox="0 0 24 18" fill="none" xmlns="http://www.w3.org/2000/svg">
<path d="M0.0693359 6.12543C0.0693359 4.52381 1.36771 3.22543 2.96934 3.22543H4.53986C5.36923 3.22543 6.1589 2.87034 6.70928 2.24992L7.8398 0.975518C8.39017 0.355093 9.17985 0 10.0092 0H14.143C14.9544 0 15.7287 0.339944 16.2779 0.937282L17.5198 2.28815C18.0689 2.88549 18.8432 3.22543 19.6547 3.22543H21.1C22.7016 3.22543 24 4.52381 24 6.12543V15.1C24 16.7016 22.7016 18 21.1 18H2.96933C1.36771 18 0.0693359 16.7016 0.0693359 15.1V6.12543Z" fill="#D9D9D9" fill-opacity="0.25"/>
<circle cx="12.0693" cy="10.5" r="5" fill="#D9D9D9" fill-opacity="0.25"/>
</svg>
