<svg width="66" height="66" viewBox="0 0 66 66" fill="none" xmlns="http://www.w3.org/2000/svg">
<rect x="0.5" y="0.578125" width="65" height="65" rx="32.5" fill="#0052CD"/>
<path d="M18.6077 28.5492C18.6077 27.4999 19.4583 26.6492 20.5077 26.6492H23.7321C24.8474 26.6492 25.9094 26.1717 26.6496 25.3373L28.5996 23.1391C28.9602 22.7326 29.4776 22.5 30.0209 22.5H36.0768C36.6084 22.5 37.1157 22.7227 37.4755 23.1141L39.5667 25.3887C40.3053 26.1921 41.3466 26.6492 42.4378 26.6492H45.4923C46.5416 26.6492 47.3923 27.4999 47.3923 28.5492V41.7554C47.3923 42.8047 46.5416 43.6554 45.4923 43.6554H20.5077C19.4583 43.6554 18.6077 42.8047 18.6077 41.7554V28.5492Z" fill="white" stroke="white" stroke-width="2"/>
<circle cx="32.6921" cy="34.5614" r="5.69231" stroke="#0052CD" stroke-width="2"/>
</svg>
