<svg width="48" height="27" viewBox="0 0 48 27" fill="none" xmlns="http://www.w3.org/2000/svg">
<path d="M20.2929 13.3864L22.1242 15.2178C22.5147 15.6083 23.1479 15.6083 23.5384 15.2178L27.6775 11.0787M24.8411 2.09459C27.2902 3.89841 29.405 4.64482 33.1741 5.39738C33.6084 5.48411 33.94 5.84865 33.9797 6.28979C35.0472 18.1413 32.3321 21.9083 24.6243 25.4327C24.3669 25.5504 24.0638 25.5505 23.8062 25.4333C15.2025 21.5168 13.0877 17.055 13.99 6.34332C14.0293 5.87613 14.3947 5.50032 14.859 5.43527C18.9228 4.86594 21.0113 4.01177 23.5908 2.09452C23.961 1.81938 24.4698 1.82106 24.8411 2.09459Z" stroke="#0052CD" stroke-width="2" stroke-linecap="round"/>
</svg>
