<svg width="48" height="27" viewBox="0 0 48 27" fill="none" xmlns="http://www.w3.org/2000/svg">
<path d="M25.4854 12.8992V4.69411M25.4854 4.69411V3.60057C25.4854 3.00612 25.1744 2.45497 24.6656 2.14756V2.14756C24.1258 1.82143 23.4497 1.82143 22.9099 2.14756V2.14756C22.4011 2.45497 22.0902 3.00612 22.0902 3.60057V12.8992V5.1159C22.0902 4.59325 21.8397 4.10225 21.4165 3.79547L21.3649 3.75804C20.7926 3.34314 20.012 3.36837 19.4678 3.81935V3.81935C19.1127 4.11358 18.9071 4.55074 18.9071 5.0119V12.8992V8.76923C18.9071 8.27106 18.6684 7.80307 18.2651 7.51065V7.51065C17.6545 7.06801 16.8144 7.1274 16.2721 7.65153L16.2231 7.69899C15.9042 8.00723 15.7241 8.43173 15.7241 8.87523V12.8992V16.8787C15.7241 16.9608 15.7258 17.0391 15.7325 17.1208C15.8179 18.1576 16.6794 25.6172 23.7878 25.6172C31.6729 25.6172 32.2378 17.7961 32.2736 17.0576C32.2756 17.0166 32.2758 16.9813 32.2758 16.9402V12.9344C32.2758 12.3986 32.0126 11.897 31.5717 11.5925V11.5925C31.0888 11.2591 30.464 11.2109 29.9356 11.4663L29.0928 11.8736M25.4854 4.69411L26.2279 4.37512C26.9432 4.06779 27.7708 4.1913 28.3653 4.69409V4.69409C28.8267 5.08439 29.0928 5.65807 29.0928 6.26242V11.8736M29.0928 17.0018V11.8736" stroke="#9F0000" stroke-width="2" stroke-linecap="round" stroke-linejoin="round"/>
</svg>
