<svg width="48" height="20" viewBox="0 0 48 20" fill="none" xmlns="http://www.w3.org/2000/svg">
<circle cx="24.4443" cy="5.3921" r="4.33351" stroke="#0052CD" stroke-width="2"/>
<path fill-rule="evenodd" clip-rule="evenodd" d="M19.4328 9.08203C18.2088 9.65604 17.094 10.4565 16.1431 11.4453C15.1114 12.5184 14.2929 13.7923 13.7345 15.1943C13.4234 15.9754 13.1964 16.7878 13.0564 17.6166C12.945 18.2754 12.8887 18.9445 12.8887 19.6166H14.8887L33.1116 19.6166H35.1116C35.1116 18.9445 35.0552 18.2754 34.9439 17.6166C34.8039 16.7878 34.5769 15.9754 34.2658 15.1943C33.7074 13.7923 32.8889 12.5184 31.8571 11.4453C31.0733 10.6301 30.1781 9.943 29.202 9.4052C28.7301 9.96427 28.1614 10.439 27.5218 10.8036C28.598 11.2767 29.5813 11.964 30.4155 12.8315C31.2655 13.7155 31.9437 14.7692 32.4078 15.9344C32.6246 16.4787 32.7924 17.0419 32.9097 17.6166L15.0905 17.6166C15.2079 17.0419 15.3757 16.4787 15.5925 15.9344C16.0566 14.7692 16.7348 13.7155 17.5848 12.8315C18.4347 11.9477 19.4393 11.2509 20.5392 10.7771C20.6969 10.7092 20.8562 10.646 21.0168 10.5876C20.4043 10.1826 19.8677 9.67208 19.4328 9.08203Z" fill="#0052CD"/>
</svg>
