<svg width="48" height="27" viewBox="0 0 48 27" fill="none" xmlns="http://www.w3.org/2000/svg">
<path d="M25.4854 12.3992V4.19411M25.4854 4.19411V3.10057C25.4854 2.50612 25.1744 1.95497 24.6656 1.64756V1.64756C24.1258 1.32143 23.4497 1.32143 22.9099 1.64756V1.64756C22.4011 1.95497 22.0902 2.50612 22.0902 3.10057V12.3992V4.6159C22.0902 4.09325 21.8397 3.60225 21.4165 3.29547L21.3649 3.25804C20.7926 2.84314 20.012 2.86837 19.4678 3.31935V3.31935C19.1127 3.61358 18.9071 4.05074 18.9071 4.5119V12.3992V8.26923C18.9071 7.77106 18.6684 7.30307 18.2651 7.01065V7.01065C17.6545 6.56801 16.8144 6.6274 16.2721 7.15153L16.2231 7.19899C15.9042 7.50723 15.7241 7.93173 15.7241 8.37523V12.3992V16.3787C15.7241 16.4608 15.7258 16.5391 15.7325 16.6208C15.8179 17.6576 16.6794 25.1172 23.7878 25.1172C31.6729 25.1172 32.2378 17.2961 32.2736 16.5576C32.2756 16.5166 32.2758 16.4813 32.2758 16.4402V12.4344C32.2758 11.8986 32.0126 11.397 31.5717 11.0925V11.0925C31.0888 10.7591 30.464 10.7109 29.9356 10.9663L29.0928 11.3736M25.4854 4.19411L26.2279 3.87512C26.9432 3.56779 27.7708 3.6913 28.3653 4.19409V4.19409C28.8267 4.58439 29.0928 5.15807 29.0928 5.76242V11.3736M29.0928 16.5018V11.3736" stroke="#12B829" stroke-width="2" stroke-linecap="round" stroke-linejoin="round"/>
</svg>
