<svg width="48" height="24" viewBox="0 0 48 24" fill="none" xmlns="http://www.w3.org/2000/svg">
<circle cx="22.6665" cy="5.33546" r="4.33351" stroke="#0052CD" stroke-width="2"/>
<path fill-rule="evenodd" clip-rule="evenodd" d="M36.8897 18.6694C36.8897 21.6151 34.5018 24.003 31.5562 24.003C28.6105 24.003 26.2227 21.6151 26.2227 18.6694C26.2227 15.7238 28.6105 13.3359 31.5562 13.3359C34.5018 13.3359 36.8897 15.7238 36.8897 18.6694ZM31.5557 15.0608C32.076 15.0608 32.4978 15.4826 32.4978 16.0029V17.7277H34.2226C34.7429 17.7277 35.1647 18.1495 35.1647 18.6698C35.1647 19.1901 34.7429 19.6119 34.2226 19.6119H32.4978V21.3364C32.4978 21.8567 32.076 22.2784 31.5557 22.2784C31.0354 22.2784 30.6136 21.8567 30.6136 21.3364V19.6119H28.8891C28.3688 19.6119 27.947 19.1901 27.947 18.6698C27.947 18.1495 28.3688 17.7277 28.8891 17.7277H30.6136V16.0029C30.6136 15.4826 31.0354 15.0608 31.5557 15.0608Z" fill="#0052CD"/>
<path fill-rule="evenodd" clip-rule="evenodd" d="M14.3653 11.3887C15.3161 10.3998 16.4309 9.5994 17.655 9.02539C18.0899 9.61544 18.6265 10.1259 19.2389 10.531C19.0783 10.5894 18.9191 10.6525 18.7614 10.7205C17.6615 11.1943 16.6568 11.891 15.807 12.7749C14.957 13.6589 14.2788 14.7126 13.8147 15.8777C13.5979 16.4221 13.43 16.9853 13.3127 17.5599L25.4312 17.5599C25.3664 17.9198 25.3326 18.2904 25.3326 18.6689C25.3326 18.9714 25.3542 19.2689 25.396 19.5599L13.1108 19.5599H11.1108C11.1108 18.8879 11.1672 18.2187 11.2785 17.5599C11.4186 16.7312 11.6455 15.9188 11.9567 15.1377C12.5151 13.7357 13.3335 12.4617 14.3653 11.3887ZM30.9975 12.4711C30.714 12.0915 30.4075 11.7299 30.0793 11.3887C29.2955 10.5735 28.4002 9.88636 27.4242 9.34856C26.9523 9.90763 26.3836 10.3824 25.744 10.7469C26.8202 11.2201 27.8035 11.9073 28.6376 12.7749C28.7228 12.8634 28.8062 12.9536 28.8878 13.0455C29.5371 12.737 30.2482 12.5377 30.9975 12.4711Z" fill="#0052CD"/>
</svg>
