<svg width="26" height="27" viewBox="0 0 26 27" fill="none" xmlns="http://www.w3.org/2000/svg">
<path d="M22.3771 17.8346L24.5432 21.2987C24.9597 21.9647 24.4808 22.8289 23.6953 22.8289H17.0816L15.1919 24.9924C14.0203 26.3338 11.9449 26.3651 10.7335 25.0596L8.66327 22.8289H2.30471C1.51918 22.8289 1.04035 21.9647 1.45682 21.2987L3.64851 17.7937C3.92564 17.3505 4.0814 16.8396 4.10524 16.3174C4.52509 7.12184 5.85692 2.8173 11.2483 1.02175C12.5454 0.589758 13.9628 0.603258 15.2513 1.06012C20.6626 2.97867 21.7764 7.34176 21.9181 16.2695C21.9268 16.8226 22.0838 17.3656 22.3771 17.8346Z" fill="white"/>
<path d="M8.66327 22.8289H2.30471C1.51918 22.8289 1.04035 21.9647 1.45682 21.2987L3.64851 17.7937C3.92564 17.3505 4.0814 16.8396 4.10524 16.3174C4.52509 7.12184 5.85692 2.8173 11.2483 1.02175C12.5454 0.589758 13.9628 0.603258 15.2513 1.06012C20.6626 2.97867 21.7764 7.34176 21.9181 16.2695C21.9268 16.8226 22.0838 17.3656 22.3771 17.8346L24.5432 21.2987C24.9597 21.9647 24.4808 22.8289 23.6953 22.8289H17.0816M8.66327 22.8289L10.7335 25.0596C11.9449 26.3651 14.0203 26.3338 15.1919 24.9924L17.0816 22.8289M8.66327 22.8289H17.0816" stroke="white"/>
</svg>
