<svg width="24" height="25" viewBox="0 0 24 25" fill="none" xmlns="http://www.w3.org/2000/svg">
<path d="M9.91839 2.53335C10.5358 0.46545 13.4642 0.465445 14.0816 2.53334L15.3177 6.67342C15.5979 7.61224 16.472 8.24726 17.4515 8.22372L21.7709 8.11991C23.9283 8.06807 24.8333 10.8532 23.0574 12.0794L19.5019 14.5343C18.6956 15.091 18.3618 16.1184 18.6868 17.0427L20.1203 21.1186C20.8363 23.1545 18.4672 24.8758 16.7522 23.5657L13.3188 20.9428C12.5402 20.3481 11.4598 20.3481 10.6812 20.9428L7.24778 23.5657C5.53283 24.8758 3.16366 23.1545 3.87967 21.1186L5.31316 17.0427C5.63823 16.1184 5.30438 15.091 4.49812 14.5343L0.942636 12.0794C-0.833271 10.8532 0.0716646 8.06806 2.22913 8.11991L6.54854 8.22372C7.52803 8.24726 8.40206 7.61224 8.68235 6.67342L9.91839 2.53335Z" fill="white"/>
</svg>
