<svg width="35" height="34" viewBox="0 0 35 34" fill="none" xmlns="http://www.w3.org/2000/svg">
<path d="M2.3335 15.5C1.50507 15.5 0.833496 16.1716 0.833496 17C0.833496 17.8284 1.50507 18.5 2.3335 18.5V15.5ZM24.3942 18.0607C24.9799 17.4749 24.9799 16.5251 24.3942 15.9393L14.8482 6.3934C14.2624 5.80761 13.3127 5.80761 12.7269 6.3934C12.1411 6.97919 12.1411 7.92893 12.7269 8.51472L21.2122 17L12.7269 25.4853C12.1411 26.0711 12.1411 27.0208 12.7269 27.6066C13.3127 28.1924 14.2624 28.1924 14.8482 27.6066L24.3942 18.0607ZM2.3335 18.5L23.3335 18.5V15.5L2.3335 15.5V18.5Z" fill="white"/>
<path d="M25.3335 32L29.5002 32C31.3411 32 32.8335 30.5076 32.8335 28.6667L32.8335 5.33327C32.8335 3.49236 31.3411 2 29.5002 2L25.3335 2" stroke="white" stroke-width="3" stroke-linecap="round"/>
</svg>
