<svg width="30" height="31" viewBox="0 0 30 31" fill="none" xmlns="http://www.w3.org/2000/svg">
<path d="M28 4L3 29" stroke="#0052CD" stroke-width="3" stroke-linecap="round"/>
<path fill-rule="evenodd" clip-rule="evenodd" d="M7.08654 23.3276H10.1629L12.2331 25.5583C13.4446 26.8638 15.5199 26.8325 16.6915 25.4911L18.5813 23.3276H25.1949C25.9805 23.3276 26.4593 22.4635 26.0428 21.7974L23.8767 18.3333C23.5834 17.8643 23.4265 17.3213 23.4177 16.7683C23.3592 13.0856 23.1354 10.1795 22.5127 7.90144L7.08654 23.3276ZM21.7518 5.83395C20.7543 3.78357 19.1887 2.42315 16.751 1.55884C15.4624 1.10198 14.045 1.08848 12.7479 1.52047C7.35654 3.31602 6.02471 7.62057 5.60487 16.8161C5.58103 17.3383 5.42527 17.8492 5.14814 18.2924L2.95645 21.7974C2.53997 22.4635 3.0188 23.3276 3.80433 23.3276H4.25812L21.7518 5.83395Z" fill="#0052CD"/>
<path d="M10.1629 23.3276L10.5294 22.9875L10.381 22.8276H10.1629V23.3276ZM7.08654 23.3276L6.73299 22.974L5.87944 23.8276H7.08654V23.3276ZM12.2331 25.5583L11.8666 25.8985H11.8666L12.2331 25.5583ZM16.6915 25.4911L16.315 25.1622L16.6915 25.4911ZM18.5813 23.3276V22.8276H18.3541L18.2047 22.9987L18.5813 23.3276ZM26.0428 21.7974L26.4667 21.5323L26.0428 21.7974ZM23.8767 18.3333L23.4527 18.5984L23.8767 18.3333ZM23.4177 16.7683L23.9176 16.7603L23.4177 16.7683ZM22.5127 7.90144L22.995 7.76961L22.768 6.93905L22.1591 7.54789L22.5127 7.90144ZM16.751 1.55884L16.5839 2.0301L16.751 1.55884ZM21.7518 5.83395L22.1053 6.1875L22.3572 5.93559L22.2014 5.61522L21.7518 5.83395ZM12.7479 1.52047L12.9059 1.99485V1.99485L12.7479 1.52047ZM5.60487 16.8161L6.10435 16.8389L5.60487 16.8161ZM5.14814 18.2924L4.7242 18.0273H4.7242L5.14814 18.2924ZM2.95645 21.7974L2.53251 21.5323L2.95645 21.7974ZM4.25812 23.3276V23.8276H4.46523L4.61167 23.6812L4.25812 23.3276ZM10.1629 22.8276H7.08654V23.8276H10.1629V22.8276ZM12.5996 25.2182L10.5294 22.9875L9.79639 23.6677L11.8666 25.8985L12.5996 25.2182ZM16.315 25.1622C15.3386 26.28 13.6091 26.3061 12.5996 25.2182L11.8666 25.8985C13.28 27.4215 15.7013 27.385 17.0681 25.8201L16.315 25.1622ZM18.2047 22.9987L16.315 25.1622L17.0681 25.8201L18.9578 23.6565L18.2047 22.9987ZM25.1949 22.8276H18.5813V23.8276H25.1949V22.8276ZM25.6189 22.0625C25.8271 22.3955 25.5877 22.8276 25.1949 22.8276V23.8276C26.3732 23.8276 27.0915 22.5314 26.4667 21.5323L25.6189 22.0625ZM23.4527 18.5984L25.6189 22.0625L26.4667 21.5323L24.3006 18.0682L23.4527 18.5984ZM22.9177 16.7762C22.9279 17.4182 23.1101 18.0504 23.4527 18.5984L24.3006 18.0682C24.0567 17.6782 23.925 17.2245 23.9176 16.7603L22.9177 16.7762ZM22.0304 8.03327C22.6354 10.2467 22.8594 13.0991 22.9177 16.7762L23.9176 16.7603C23.8591 13.072 23.6354 10.1124 22.995 7.76961L22.0304 8.03327ZM22.1591 7.54789L6.73299 22.974L7.4401 23.6812L22.8663 8.255L22.1591 7.54789ZM16.5839 2.0301C18.912 2.85552 20.3683 4.133 21.3021 6.05268L22.2014 5.61522C21.1403 3.43414 19.4655 1.99077 16.9181 1.08758L16.5839 2.0301ZM12.9059 1.99485C14.0974 1.59805 15.4004 1.61047 16.5839 2.0301L16.9181 1.08758C15.5245 0.593492 13.9927 0.578914 12.5899 1.04609L12.9059 1.99485ZM6.10435 16.8389C6.3142 12.2428 6.75134 8.94996 7.77101 6.59173C8.77107 4.27884 10.3383 2.84996 12.9059 1.99485L12.5899 1.04609C9.76611 1.98654 7.97179 3.6077 6.85313 6.19486C5.75408 8.73668 5.31539 12.1939 5.10539 16.7933L6.10435 16.8389ZM5.57208 18.5575C5.89598 18.0395 6.07669 17.4448 6.10435 16.8389L5.10539 16.7933C5.08537 17.2318 4.95455 17.6589 4.7242 18.0273L5.57208 18.5575ZM3.38039 22.0625L5.57208 18.5575L4.7242 18.0273L2.53251 21.5323L3.38039 22.0625ZM3.80433 22.8276C3.41157 22.8276 3.17215 22.3955 3.38039 22.0625L2.53251 21.5323C1.9078 22.5314 2.62603 23.8276 3.80433 23.8276V22.8276ZM4.25812 22.8276H3.80433V23.8276H4.25812V22.8276ZM4.61167 23.6812L22.1053 6.1875L21.3982 5.4804L3.90456 22.974L4.61167 23.6812Z" fill="#0052CD"/>
</svg>
