<svg width="32" height="32" viewBox="0 0 32 32" fill="none" xmlns="http://www.w3.org/2000/svg">
<path d="M29.7854 15.9978V15.998C29.7854 23.5968 23.5988 29.7835 16 29.7835C8.40113 29.7835 2.21455 23.6008 2.21455 15.998C2.21455 8.39925 8.4012 2.2126 16 2.2126C23.603 2.2126 29.7894 8.39932 29.7854 15.9978ZM0.6 15.998C0.6 24.4906 7.50716 31.4021 16 31.4021L31 15.998H31.4C31.4 15.998 31.4 15.9979 31.4 15.9979C31.3999 7.50524 24.4926 0.598047 16 0.598047C7.5073 0.598047 0.6 7.50534 0.6 15.998Z" fill="white" stroke="white" stroke-width="0.8"/>
<path d="M16 7.92188V19.4603" stroke="white" stroke-width="3" stroke-linecap="round"/>
<path d="M16.0024 24.7866V24.5723" stroke="white" stroke-width="3" stroke-linecap="round"/>
</svg>
