<svg width="31" height="30" viewBox="0 0 31 30" fill="none" xmlns="http://www.w3.org/2000/svg">
<path fill-rule="evenodd" clip-rule="evenodd" d="M12.6665 24C19.2939 24 24.6665 18.6274 24.6665 12C24.6665 5.37258 19.2939 0 12.6665 0C6.03909 0 0.666504 5.37258 0.666504 12C0.666504 18.6274 6.03909 24 12.6665 24ZM12.6653 20.9988C17.6359 20.9988 21.6653 16.9694 21.6653 11.9988C21.6653 7.02824 17.6359 2.9988 12.6653 2.9988C7.69474 2.9988 3.6653 7.02824 3.6653 11.9988C3.6653 16.9694 7.69474 20.9988 12.6653 20.9988Z" fill="white"/>
<path d="M27.3342 29.3323C28.07 30.0681 29.263 30.0681 29.9988 29.3323C30.7346 28.5965 30.7346 27.4035 29.9988 26.6677L27.3342 29.3323ZM29.9988 26.6677L20.9988 17.6677L18.3342 20.3323L27.3342 29.3323L29.9988 26.6677Z" fill="white"/>
</svg>
