<svg width="24" height="25" viewBox="0 0 24 25" fill="none" xmlns="http://www.w3.org/2000/svg">
<path d="M13.1234 2.81747L14.3594 6.95755C14.7688 8.32852 16.0451 9.25585 17.4755 9.22148L21.7949 9.11767C22.9592 9.08969 23.4476 10.5928 22.4892 11.2545L18.9337 13.7094C17.7563 14.5223 17.2688 16.0228 17.7435 17.3725L19.177 21.4484C19.5634 22.5472 18.2848 23.4761 17.3593 22.7691L13.9258 20.1462C12.7888 19.2777 11.2112 19.2777 10.0742 20.1462L6.64073 22.7691C5.7152 23.4761 4.43661 22.5472 4.82303 21.4485L6.25652 17.3725C6.73122 16.0228 6.24369 14.5223 5.0663 13.7094L1.51081 11.2545C0.552388 10.5928 1.04077 9.08969 2.20511 9.11767L6.52452 9.22148C7.95488 9.25585 9.23124 8.32852 9.64055 6.95755L10.8766 2.81747C11.2098 1.70146 12.7902 1.70147 13.1234 2.81747Z" stroke="white" stroke-width="2"/>
</svg>
